<svg id="Layer_1" data-name="Layer 1" xmlns="http://www.w3.org/2000/svg" viewBox="0 0 26 18"><defs><style>.cls-1{fill:#ff8a00;}.cls-2{fill:#fff;}</style></defs><title>button_menu</title><path id="Rounded_Rectangle_1_copy" data-name="Rounded Rectangle 1 copy" class="cls-1" d="M672.81,375h20.37a2.81,2.81,0,0,1,2.81,2.81v12.37a2.81,2.81,0,0,1-2.81,2.81H672.81a2.81,2.81,0,0,1-2.81-2.81V377.81a2.81,2.81,0,0,1,2.81-2.81Zm0,0h20.37a2.81,2.81,0,0,1,2.81,2.81v12.37a2.81,2.81,0,0,1-2.81,2.81H672.81a2.81,2.81,0,0,1-2.81-2.81V377.81a2.81,2.81,0,0,1,2.81-2.81Z" transform="translate(-670 -375)"/><path class="cls-2" d="M678,381h10a1,1,0,0,0,0-2H678a1,1,0,0,0,0,2Z" transform="translate(-670 -375)"/><path class="cls-2" d="M688,383H678a1,1,0,0,0,0,2h10a1,1,0,0,0,0-2Z" transform="translate(-670 -375)"/><path class="cls-2" d="M688,387H678a1,1,0,0,0,0,2h10a1,1,0,0,0,0-2Z" transform="translate(-670 -375)"/></svg>