<svg xmlns="http://www.w3.org/2000/svg" width="62" height="36" viewBox="0 0 62 36">
  <metadata><?xpacket begin="﻿" id="W5M0MpCehiHzreSzNTczkc9d"?>
<x:xmpmeta xmlns:x="adobe:ns:meta/" x:xmptk="Adobe XMP Core 5.6-c138 79.159824, 2016/09/14-01:09:01        ">
   <rdf:RDF xmlns:rdf="http://www.w3.org/1999/02/22-rdf-syntax-ns#">
      <rdf:Description rdf:about=""/>
   </rdf:RDF>
</x:xmpmeta>
                                                                                                    
                                                                                                    
                                                                                                    
                                                                                                    
                                                                                                    
                                                                                                    
                                                                                                    
                                                                                                    
                                                                                                    
                                                                                                    
                                                                                                    
                                                                                                    
                                                                                                    
                                                                                                    
                                                                                                    
                                                                                                    
                                                                                                    
                                                                                                    
                                                                                                    
                                                                                                    
                           
<?xpacket end="w"?></metadata>
<defs>
    <style>
      .cls-1 {
        fill: #ff8a00;
        fill-rule: evenodd;
      }
    </style>
  </defs>
  <path class="cls-1" d="M43.656,23.7q0-4.844,0-9.688a2.141,2.141,0,0,1,2.33-2.345H58.954a2.135,2.135,0,0,1,2.306,2.294q0.007,9.767,0,19.534a2.148,2.148,0,0,1-2.333,2.314q-6.464.005-12.928,0a2.151,2.151,0,0,1-2.342-2.341Q43.654,28.585,43.656,23.7Zm15.989,8.882V32.144q0-9.1.01-18.2c0-.41-0.12-0.5-0.506-0.495q-6.738.019-13.476,0c-0.388,0-.505.089-0.5,0.5q0.021,9.1.011,18.2c0,0.139.012,0.279,0.019,0.438H59.645Zm-7.235.957a0.693,0.693,0,0,0-.708.681,0.709,0.709,0,1,0,1.417,0A0.7,0.7,0,0,0,52.41,33.54Zm-40.76-5.256a2.36,2.36,0,0,1-.025-0.237c0-1.242,0-2.485-.006-3.727,0-.249.067-0.371,0.33-0.342a2.951,2.951,0,0,0,.313,0H42.7v4.305H11.649Zm16.3-2.129a0.881,0.881,0,1,0-.877.875A0.888,0.888,0,0,0,27.947,26.155ZM7.684,18.434V17.94q0-6.924,0-13.848A3.531,3.531,0,0,1,11.4.368q15.673,0,31.345,0a3.532,3.532,0,0,1,3.7,3.695c0.006,2.053,0,4.106,0,6.159,0,0.128-.011.256-0.017,0.414H44.646V10.189q0-3.119,0-6.238A1.766,1.766,0,0,0,42.707,2Q26.995,2,11.283,2A1.755,1.755,0,0,0,9.361,3.926q0,7,0,14.005v0.5H7.684Zm3.145,9q0,2.764,0,5.529a2.618,2.618,0,0,1-2.765,2.786q-2.546,0-5.091,0A2.61,2.61,0,0,1,.259,33.036q0-5.568,0-11.136a2.594,2.594,0,0,1,2.685-2.7q2.6-.007,5.209,0a2.591,2.591,0,0,1,2.676,2.671C10.835,23.726,10.83,25.582,10.83,27.438Zm-9.5-5.928a1.882,1.882,0,0,0-.027.2q0,5.726-.007,11.451c0,0.3.14,0.332,0.382,0.332q3.878-.008,7.755,0a2.877,2.877,0,0,0,.326-0.035V21.51H1.328Zm4.23,13.8a0.7,0.7,0,0,0,.692-0.7,0.706,0.706,0,1,0-1.411.028A0.7,0.7,0,0,0,5.558,35.306ZM3.819,20.259c-0.1.272-.02,0.361,0.233,0.359,0.99-.007,1.981,0,2.972,0,0.3,0,.3-0.012.208-0.354H3.819ZM23.363,33.646V31.1c0-.2-0.009-0.392,0-0.588a0.685,0.685,0,0,1,.715-0.721q2.977-.013,5.954,0a0.688,0.688,0,0,1,.728.785c0.008,0.9,0,1.8,0,2.706,0,0.1.01,0.205,0.017,0.345,0.137,0.009.262,0.024,0.386,0.024,0.7,0,1.41-.006,2.115,0a0.914,0.914,0,0,1,1,1.1,0.883,0.883,0,0,1-1,1.019q-5.738,0-11.477,0c-0.365,0-.731.01-1.1,0A0.9,0.9,0,0,1,19.8,34.73a0.909,0.909,0,0,1,.907-1.083c0.7-.015,1.41,0,2.115,0h0.541Z"/>
</svg>
