<svg xmlns="http://www.w3.org/2000/svg" width="41" height="41" viewBox="0 0 41 41">
  <metadata><?xpacket begin="﻿" id="W5M0MpCehiHzreSzNTczkc9d"?>
<x:xmpmeta xmlns:x="adobe:ns:meta/" x:xmptk="Adobe XMP Core 5.6-c138 79.159824, 2016/09/14-01:09:01        ">
   <rdf:RDF xmlns:rdf="http://www.w3.org/1999/02/22-rdf-syntax-ns#">
      <rdf:Description rdf:about=""/>
   </rdf:RDF>
</x:xmpmeta>
                                                                                                    
                                                                                                    
                                                                                                    
                                                                                                    
                                                                                                    
                                                                                                    
                                                                                                    
                                                                                                    
                                                                                                    
                                                                                                    
                                                                                                    
                                                                                                    
                                                                                                    
                                                                                                    
                                                                                                    
                                                                                                    
                                                                                                    
                                                                                                    
                                                                                                    
                                                                                                    
                           
<?xpacket end="w"?></metadata>
<defs>
    <style>
      .cls-1 {
        fill: #ff8a00;
        fill-rule: evenodd;
      }
    </style>
  </defs>
  <path class="cls-1" d="M0.919,35.2a2.648,2.648,0,0,1,.71-0.218c1.539-.02,3.078-0.011,4.617-0.011h0.4V34.526c0-3.836,0-7.672,0-11.508a3.572,3.572,0,0,1,2.978-3.673,4.532,4.532,0,0,1,.818-0.052q8.764,0,17.529,0A0.71,0.71,0,0,0,28.6,19q2.946-3.631,5.911-7.247c0.385-.472.385-0.472,0.845-0.1,0.708,0.575.707,0.574,0.129,1.281L32.5,16.582c0.255,0.755.5,1.442,0.722,2.138q2.52,7.931,5.024,15.867a0.451,0.451,0,0,0,.545.387c0.428-.03.86-0.01,1.291-0.005a0.484,0.484,0,0,1,.588.583c0,0.848,0,1.7,0,2.544,0,0.658-.09.754-0.735,0.754q-3.971,0-7.943,0-15.181,0-30.362,0a0.71,0.71,0,0,1-.715-0.291V35.2Zm34.126-.246c-0.038-.147-0.065-0.273-0.1-0.395-1.411-4.443-2.829-8.884-4.224-13.333a0.62,0.62,0,0,0-.726-0.516q-9.762.023-19.523,0.011A2.173,2.173,0,0,0,8.093,23.1q0,5.715,0,11.429v0.42H35.045ZM35.04,40.989a6.034,6.034,0,0,1-1-.484,1.61,1.61,0,0,1-.626-1.352H36.96A1.714,1.714,0,0,1,35.645,40.9c-0.1.026-.2,0.058-0.292,0.087H35.04Zm-28.8,0a6.135,6.135,0,0,1-1.066-.527,1.592,1.592,0,0,1-.581-1.305H8.143A1.729,1.729,0,0,1,6.814,40.9c-0.113.027-.226,0.056-0.339,0.085H6.241ZM20.475,15.148c-0.024.921-.055,1.8-0.058,2.687a0.484,0.484,0,0,0,.247.29,12.683,12.683,0,0,1,1.327.847c-0.108.008-.215,0.022-0.323,0.023-1.917,0-3.834-.006-5.751.008a0.383,0.383,0,0,1-.477-0.362q-0.156-1.311-.314-2.621l0.111-.052c0.138,0.109.274,0.221,0.415,0.326a1.434,1.434,0,0,0,1.793-2.238c-0.559-.489-1.1-1-1.668-1.478a0.522,0.522,0,0,1-.07-0.733,0.57,0.57,0,0,1,.431-0.207c0.833-.007,1.668-0.013,2.5.04a1.473,1.473,0,0,0,1.613-1.208,1.429,1.429,0,0,0-1.289-1.65C18.38,8.763,17.8,8.741,17.126,8.7a2.681,2.681,0,0,1,.4-0.342,9.178,9.178,0,0,1,1.293-.631,2.052,2.052,0,0,1,2.095.894,3.22,3.22,0,0,1,.383,2.338c-0.084.488-.178,0.975-0.3,1.454a0.337,0.337,0,0,0,.217.468,1.851,1.851,0,0,0,.973.1,16.045,16.045,0,0,0,2.12-.965,1.167,1.167,0,0,1,1.776.743,0.981,0.981,0,0,1-.36,1.054,6.6,6.6,0,0,1-4.3,1.5C21.142,15.294,20.865,15.218,20.475,15.148Zm-2.9-10.991A3.219,3.219,0,1,1,20.8,7.4,3.222,3.222,0,0,1,17.576,4.157Zm-2.892,7.48a11.034,11.034,0,0,0,.839,1.067c0.538,0.53,1.108,1.027,1.681,1.521a1.174,1.174,0,0,1,.237,1.663,1.094,1.094,0,0,1-1.631.152c-0.838-.74-1.657-1.509-2.424-2.321a3.919,3.919,0,0,1-.745-1.27,2.105,2.105,0,0,1,1.107-2.821,6.2,6.2,0,0,1,2.059-.542,24.371,24.371,0,0,1,3.122.037,1.1,1.1,0,0,1,1.054,1.217A1.174,1.174,0,0,1,18.711,11.4c-1-.014-2-0.021-3,0.005A5.7,5.7,0,0,0,14.684,11.637Zm4.585,9.812c-0.6,1.779-1.115,3.529-1.768,5.228-0.854,2.224-1.8,4.412-2.732,6.6a1.765,1.765,0,0,1-2.059,1.092,1.815,1.815,0,0,1-1.2-2.588c1.036-2.5,2.06-5.009,3.05-7.529,0.37-.943.639-1.928,0.936-2.9a0.4,0.4,0,0,1,.45-0.352q3.913,0.02,7.825,0a0.476,0.476,0,0,1,.486.291,5.394,5.394,0,0,1,.166,4.793A11.321,11.321,0,0,1,21.4,30.13a1.752,1.752,0,0,1-2.467-.157,1.8,1.8,0,0,1,.054-2.48,22.075,22.075,0,0,0,1.521-1.73,5.764,5.764,0,0,0,.7-1.344,1.633,1.633,0,0,0-.293-1.689A4.991,4.991,0,0,0,19.269,21.449Z"/>
</svg>
