<svg xmlns="http://www.w3.org/2000/svg" width="53" height="53" viewBox="0 0 53 53">
  <metadata><?xpacket begin="﻿" id="W5M0MpCehiHzreSzNTczkc9d"?>
<x:xmpmeta xmlns:x="adobe:ns:meta/" x:xmptk="Adobe XMP Core 5.6-c138 79.159824, 2016/09/14-01:09:01        ">
   <rdf:RDF xmlns:rdf="http://www.w3.org/1999/02/22-rdf-syntax-ns#">
      <rdf:Description rdf:about=""/>
   </rdf:RDF>
</x:xmpmeta>
                                                                                                    
                                                                                                    
                                                                                                    
                                                                                                    
                                                                                                    
                                                                                                    
                                                                                                    
                                                                                                    
                                                                                                    
                                                                                                    
                                                                                                    
                                                                                                    
                                                                                                    
                                                                                                    
                                                                                                    
                                                                                                    
                                                                                                    
                                                                                                    
                                                                                                    
                                                                                                    
                           
<?xpacket end="w"?></metadata>
<defs>
    <style>
      .cls-1 {
        fill: #ff8a00;
        fill-rule: evenodd;
      }
    </style>
  </defs>
  <path class="cls-1" d="M0.518,23.082A1.375,1.375,0,0,1,1.9,22.357c2.156,0.029,4.312.007,6.468,0.014A1.023,1.023,0,0,1,9.48,23.381a1.034,1.034,0,0,1-1.1,1.024c-0.119,0-.238,0-0.357,0H2.594V38.639H9.484c0-.464,0-0.918,0-1.371,0-1.223-.009-2.445,0-3.667a3.053,3.053,0,1,1,6.106-.023c0.017,1.494,0,2.988,0,4.482v0.582h6.9V24.407H16.977c-0.136,0-.272.006-0.407-0.006a1.021,1.021,0,0,1-.968-1,0.991,0.991,0,0,1,.982-1.026q3.489-.025,6.978,0a1.011,1.011,0,0,1,1,1.165q0.007,3.82,0,7.64v0.611l4.988-1.1c-0.145-.127-0.24-0.214-0.34-0.3a6.772,6.772,0,0,1-2.63-5.39c-0.011-1.324-.016-2.649,0-3.973A6.859,6.859,0,0,1,40.2,19.9a17.552,17.552,0,0,1,.121,2.945,24.216,24.216,0,0,1-.111,3.252,6.5,6.5,0,0,1-2.4,4.186c-0.14.117-.284,0.232-0.5,0.4,1.321,0.291,2.562.595,3.816,0.833A6.5,6.5,0,0,1,45.271,33.9a0.753,0.753,0,0,0,.531.176c1.834,0.013,3.667.028,5.5,0a1.375,1.375,0,0,1,1.385.724V52.428H0.518v-5.4A1.346,1.346,0,0,1,1.9,46.3c0.981,0.039,1.965.011,2.948,0.011H6.226a3.415,3.415,0,0,1,.8-2.608,3.3,3.3,0,0,1,2.42-1.082V40.71H8.864c-2.321,0-4.643-.017-6.964.011A1.376,1.376,0,0,1,.518,40V23.082ZM36.85,32.669c-0.81,2.16-1.6,4.25-2.375,6.347a1.056,1.056,0,0,1-2.083,0c-0.631-1.718-1.279-3.43-1.922-5.143-0.147-.392-0.3-0.783-0.463-1.2-1.625.368-3.209,0.732-4.8,1.083a0.73,0.73,0,0,0-.661.867c0.041,1.646.02,3.293,0.013,4.94a1.032,1.032,0,0,1-1.129,1.146c-0.317.007-.635,0-0.959,0v5.577H37.607V45.711q0-5.195,0-10.389a1.064,1.064,0,0,1,1.245-1.234c1,0,2,0,3,0,0.119,0,.237-0.022.356-0.034q0.01-.084.019-0.168ZM2.578,50.354H50.625V48.379H2.578v1.975ZM28.625,23.43c0,0.663-.014,1.186,0,1.707A4.832,4.832,0,0,0,32.922,29.8a4.756,4.756,0,0,0,5.18-3.627,15.372,15.372,0,0,0,.175-2.88,0.634,0.634,0,0,0-.316-0.394c-0.663-.41-1.35-0.78-2.009-1.2a0.5,0.5,0,0,0-.7.057,6.649,6.649,0,0,1-3.7,1.657C30.609,23.505,29.655,23.43,28.625,23.43Zm9.657-2.721a4.791,4.791,0,0,0-2.811-4,4.827,4.827,0,0,0-6.833,4.76c0.675,0,1.285.008,1.894,0a5.286,5.286,0,0,0,3.922-1.759,1.117,1.117,0,0,1,1.7-.249C36.821,19.849,37.489,20.244,38.281,20.71ZM50.628,36.149H39.675v1.98H50.628v-1.98ZM39.667,42.2H50.625V40.228H39.667V42.2Zm10.959,2.11H39.669v1.975H50.627V44.312ZM13.56,42.621V39.758c0-2.02,0-4.04,0-6.06a1.034,1.034,0,0,0-1.135-1.131,1.05,1.05,0,0,0-.9,1.166q0,4.278,0,8.556a2.723,2.723,0,0,0,.039.332h2Zm2.063-1.885V42.6a3.293,3.293,0,0,1,3.267,3.669h1.483V40.736h-4.75Zm1.146,5.553a1.2,1.2,0,0,0-1.328-1.605q-2.9,0-5.8,0a1.2,1.2,0,0,0-1.336,1.605h8.46Zm16.6-10.47H33.49L35,31.79H31.868ZM10.911,0.257c0.672,0.163,1.359.28,2.013,0.5A9.425,9.425,0,1,1,.611,10.99,2.637,2.637,0,0,0,.518,10.65V8.714A2.063,2.063,0,0,0,.607,8.428,9.268,9.268,0,0,1,6.729.84,18.564,18.564,0,0,1,8.975.257h1.936ZM9.976,17.073a7.389,7.389,0,1,0-7.42-7.345A7.387,7.387,0,0,0,9.976,17.073Zm2.561,5.3a1.015,1.015,0,1,1-1.011.993A1.027,1.027,0,0,1,12.537,22.372ZM8.943,7.2c0-.746,0-1.491,0-2.237A1.051,1.051,0,0,1,9.966,3.725,1.075,1.075,0,0,1,10.979,4.99c0.006,1.288-.013,2.576.015,3.863a1.267,1.267,0,0,0,.292.7c0.263,0.329.6,0.6,0.885,0.91a1.015,1.015,0,1,1-1.439,1.432A17.671,17.671,0,0,1,9.3,10.449a1.652,1.652,0,0,1-.344-0.908C8.911,8.764,8.943,7.983,8.943,7.2Z"/>
</svg>
