<svg xmlns="http://www.w3.org/2000/svg" width="47" height="46" viewBox="0 0 47 46">
  <metadata><?xpacket begin="﻿" id="W5M0MpCehiHzreSzNTczkc9d"?>
<x:xmpmeta xmlns:x="adobe:ns:meta/" x:xmptk="Adobe XMP Core 5.6-c138 79.159824, 2016/09/14-01:09:01        ">
   <rdf:RDF xmlns:rdf="http://www.w3.org/1999/02/22-rdf-syntax-ns#">
      <rdf:Description rdf:about=""/>
   </rdf:RDF>
</x:xmpmeta>
                                                                                                    
                                                                                                    
                                                                                                    
                                                                                                    
                                                                                                    
                                                                                                    
                                                                                                    
                                                                                                    
                                                                                                    
                                                                                                    
                                                                                                    
                                                                                                    
                                                                                                    
                                                                                                    
                                                                                                    
                                                                                                    
                                                                                                    
                                                                                                    
                                                                                                    
                                                                                                    
                           
<?xpacket end="w"?></metadata>
<defs>
    <style>
      .cls-1 {
        fill: #ff8a00;
        fill-rule: evenodd;
      }
    </style>
  </defs>
  <path class="cls-1" d="M17.9,45.993H11.126c0.041-.467.059-0.91,0.123-1.346a2.19,2.19,0,0,0-.516-1.818A11.541,11.541,0,0,0,9.55,41.662C8.183,40.476,6.8,39.31,5.428,38.129a2.712,2.712,0,0,1-.44-0.5q-2.11-3-4.208-6a1.452,1.452,0,0,1,.036-1.919,1.432,1.432,0,0,1,2.15.041c0.448,0.487.868,1,1.386,1.472-0.029-.272-0.061-0.544-0.088-0.817a1.187,1.187,0,0,1,.979-1.4,1.123,1.123,0,0,1,1.312.963A15.024,15.024,0,0,0,8.291,34.42a1.235,1.235,0,0,0,.566.507,26.851,26.851,0,0,0,2.9,1.03l-1.048-1.344a1.369,1.369,0,0,1,.13-1.959,1.424,1.424,0,0,1,2.011.12c1.095,1.15,2.168,2.321,3.29,3.444a5.914,5.914,0,0,1,1.733,3.816c0.1,1.213.027,2.439,0.029,3.659C17.9,44.452,17.9,45.21,17.9,45.993ZM42.371,31.259c0.441-.511.872-1.032,1.328-1.529a1.36,1.36,0,0,1,1.426-.432,1.247,1.247,0,0,1,1.02,1.068,1.878,1.878,0,0,1-.234,1.161c-1.414,2.089-2.875,4.146-4.328,6.208a2.711,2.711,0,0,1-.461.478q-2.06,1.767-4.128,3.526c-0.048.041-.1,0.084-0.147,0.121a3.271,3.271,0,0,0-1.382,3.621,3.248,3.248,0,0,1,.049.377,0.831,0.831,0,0,1-.011.127h-6.75c0.143-2.429-.458-4.875.283-7.279a5.755,5.755,0,0,1,1.393-2.4c1.146-1.166,2.256-2.368,3.385-3.551a1.417,1.417,0,0,1,1.977-.114,1.37,1.37,0,0,1,.163,1.957c-0.35.45-.7,0.9-1.113,1.42a3.065,3.065,0,0,0,.36-0.081c0.889-.339,1.781-0.671,2.659-1.035a1.014,1.014,0,0,0,.461-0.423,14.768,14.768,0,0,0,1.745-4.446,1.14,1.14,0,0,1,1.361-1.018,1.2,1.2,0,0,1,.943,1.47c-0.03.245-.055,0.491-0.082,0.737ZM21.33,24.233a4.609,4.609,0,0,1-2.573-3.887,4.388,4.388,0,0,1,1.31-3.454,4.578,4.578,0,0,1,6.666.153,4.643,4.643,0,0,1-1.383,7.2,6.209,6.209,0,0,1,3.235,2.679,5.16,5.16,0,0,1,.8,2.467c0.049,1.709.014,3.421,0.014,5.16H17.218c0-1.361-.026-2.706.011-4.05a9.144,9.144,0,0,1,.243-2.163A6.014,6.014,0,0,1,21.33,24.233Zm2.115-5.759c-0.744.145-1.361,0.221-1.951,0.389-1.226.35-1.443,0.774-1.12,2.015,0.024,0.092.056,0.182,0.088,0.271a3.051,3.051,0,0,0,5.909-1.174,0.8,0.8,0,0,0-.6-0.891C24.962,18.878,24.157,18.662,23.445,18.474ZM23.323,32.29c0.508-.762.973-1.441,1.414-2.136a0.65,0.65,0,0,0,.033-0.44c-0.337-1.515-.706-3.023-1.021-4.542-0.092-.445-0.259-0.607-0.694-0.47a0.256,0.256,0,0,0-.048.074Q22.42,27.3,21.842,29.821a0.443,0.443,0,0,0,.046.309C22.343,30.831,22.811,31.524,23.323,32.29ZM39.384,7.134a6.862,6.862,0,1,1-6.906,6.8A6.867,6.867,0,0,1,39.384,7.134Zm3.764,5.322h-2.3V10.211H37.8V12.5H35.557v3.038h2.287V17.78h3.04V15.495h2.264V12.456Zm-35.875,8.4A6.862,6.862,0,1,1,14.166,14,6.872,6.872,0,0,1,7.272,20.858Zm3.076-7.616h1.391l0.023-.1L7.3,9.422,2.723,13.235H4.262v4.537h6.086v-4.53ZM23.36,0.272a6.1,6.1,0,1,1-6.141,6.048A6.109,6.109,0,0,1,23.36.272Zm2.249,4.561a2.04,2.04,0,0,0-.958-1.8,0.951,0.951,0,0,1-.573-1.082,0.278,0.278,0,0,0-.041-0.117H22.607c-0.169.35,0.167,0.767-.347,1.023a2.191,2.191,0,0,0-1.183,2.426,2.294,2.294,0,0,0,2.14,1.849,0.794,0.794,0,0,1,.862.709,0.776,0.776,0,0,1-.607.8A0.8,0.8,0,0,1,22.561,8a0.519,0.519,0,0,0-.046-0.079H21.034a2.018,2.018,0,0,0,.921,1.762,1.04,1.04,0,0,1,.618,1.157,0.155,0.155,0,0,0,.044.07h1.421c0.169-.349-0.169-0.766.347-1.022a2.2,2.2,0,0,0,1.183-2.428,2.3,2.3,0,0,0-2.14-1.85A0.79,0.79,0,0,1,22.564,4.9a0.772,0.772,0,0,1,.606-0.8,0.8,0.8,0,0,1,.912.639,1.006,1.006,0,0,0,.05.093h1.477Z"/>
</svg>
