<svg xmlns="http://www.w3.org/2000/svg" width="53" height="40" viewBox="0 0 53 40">
  <metadata><?xpacket begin="﻿" id="W5M0MpCehiHzreSzNTczkc9d"?>
<x:xmpmeta xmlns:x="adobe:ns:meta/" x:xmptk="Adobe XMP Core 5.6-c138 79.159824, 2016/09/14-01:09:01        ">
   <rdf:RDF xmlns:rdf="http://www.w3.org/1999/02/22-rdf-syntax-ns#">
      <rdf:Description rdf:about=""/>
   </rdf:RDF>
</x:xmpmeta>
                                                                                                    
                                                                                                    
                                                                                                    
                                                                                                    
                                                                                                    
                                                                                                    
                                                                                                    
                                                                                                    
                                                                                                    
                                                                                                    
                                                                                                    
                                                                                                    
                                                                                                    
                                                                                                    
                                                                                                    
                                                                                                    
                                                                                                    
                                                                                                    
                                                                                                    
                                                                                                    
                           
<?xpacket end="w"?></metadata>
<defs>
    <style>
      .cls-1 {
        fill: #ff8a00;
        fill-rule: evenodd;
      }
    </style>
  </defs>
  <path class="cls-1" d="M19.089,11.877l-2.144,1.18c0.383,0.3.645,0.53,0.938,0.716a1.417,1.417,0,0,1,.633,1.3,6.321,6.321,0,0,0,.21,1.542,1.447,1.447,0,0,1-1.3,2.043A1.655,1.655,0,0,0,15.906,20a3.8,3.8,0,0,1-1.239,2.214,1.036,1.036,0,0,1-.687.139c-0.485-.078-0.956-0.24-1.437-0.351a1.907,1.907,0,0,0-1.784,1.283,0.787,0.787,0,0,0,.4.586,17.277,17.277,0,0,0,1.7.6c0.19,0.063.386,0.1,0.727,0.2-1.179.489-2.227,0.936-3.289,1.348a0.7,0.7,0,0,1-.5-0.161,3.883,3.883,0,0,1-1.413-2.182,10.7,10.7,0,0,1-.294-1.145,2.611,2.611,0,0,0-1.3-1.74A15.932,15.932,0,0,1,5,19.284a16.757,16.757,0,0,0,1.469,7.9l-2.488.866A19.321,19.321,0,0,1,9.268,5.333,19.081,19.081,0,0,1,18.526,1.04a19.822,19.822,0,0,1,10.127.9A19.236,19.236,0,0,1,37.03,7.81,1.806,1.806,0,0,1,37.2,6.978a6.642,6.642,0,0,1,1.314-.866,0.79,0.79,0,0,1,.513.139c2.121,1.013,4.235,2.041,6.364,3.038a1.026,1.026,0,0,0,.766,0c1.078-.492,2.122-1.054,3.2-1.543A4.433,4.433,0,0,1,50.8,7.329a1.156,1.156,0,0,1,1.209,1.776,2.264,2.264,0,0,1-.8.914c-1.159.732-2.349,1.416-3.547,2.082a0.69,0.69,0,0,0-.426.632c-0.181,2.173-.395,4.343-0.58,6.516a0.908,0.908,0,0,1-.569.866c-0.473.212-.913,0.5-1.43,0.79,0.048-.518.087-0.968-0.373-1l-0.707-5.809c-1.155.587-2.171,1.21-3.266,1.634a4.642,4.642,0,0,0-2.757,2.858,5.865,5.865,0,0,1-1.693,1.606l-0.141-.119c0.083-1.063.149-2.127,0.257-3.187a0.567,0.567,0,0,0-.358-0.659c-0.9-.469-1.777-0.97-2.722-1.492,0.536-.346,1-0.661,1.484-0.949a0.817,0.817,0,0,1,.415-0.043,0.631,0.631,0,0,1,.268.082,3.124,3.124,0,0,0,3.495-.267c1.09-.725,2.309-1.258,3.55-1.917-0.166-.169-0.3-0.314-0.438-0.445-1.012-.93-2.047-1.836-3.029-2.8a1.2,1.2,0,0,0-1.316-.37c0.834,1.405,1.282,2.428,2.181,3.942-1.389.5-2.4,1.571-3.882,1.49a2.109,2.109,0,0,1-.731-0.287c-1.057-.444-1.443.162-2.234,0.964A5.279,5.279,0,0,1,28.3,15.409a3.023,3.023,0,0,1-.9-0.445c0.334-.085.508-0.125,0.68-0.173a0.991,0.991,0,0,0,.843-1.1c0-.3-0.056-0.6-0.067-0.9a1.382,1.382,0,0,1,1.9-1.445c0.41,0.13.793,0.343,1.19,0.513a1.345,1.345,0,0,0,2.044-.681,6.914,6.914,0,0,1,1.055-1.3,16.833,16.833,0,0,0-7.014-5.25,3.3,3.3,0,0,0,.054.418A1.315,1.315,0,0,1,27.515,6.7a5.3,5.3,0,0,0-1.954,3.268c-0.369,1.389-.782,1.528-1.913.627a3.044,3.044,0,0,1-.586-0.527,5.484,5.484,0,0,0-2.85-1.972,4.551,4.551,0,0,1-1.47-.817A4.723,4.723,0,0,1,17.86,6.09C17.536,5.565,17.276,5,16.951,4.475a0.512,0.512,0,0,0-.456-0.166,16.364,16.364,0,0,0-5.431,3.023c1.159,0.147,2.286.281,3.411,0.434a3.95,3.95,0,0,1,2.885,1.953A26.144,26.144,0,0,0,19.089,11.877ZM6.876,32.675c0.859-.246,1.715-0.509,2.583-0.721a0.771,0.771,0,0,1,.515.229c0.926,0.759,1.839,1.534,2.833,2.368,0.181-1.391.36-2.623,0.491-3.86a0.579,0.579,0,0,1,.46-0.577c1.93-.686,3.849-1.4,5.775-2.1a5.844,5.844,0,0,1,.637-0.151,1.012,1.012,0,0,1-1.24.878,2.315,2.315,0,0,0-1.611.364,1,1,0,0,0-.432,1.01,2.492,2.492,0,0,1-.224,1.24,8.582,8.582,0,0,1-3.176,3.492,16.922,16.922,0,0,0,12.476,1.7,4.738,4.738,0,0,0-.376-2.618c-0.291-.631-0.569-1.268-0.857-1.9a1.941,1.941,0,0,1,.01-1.687,16.63,16.63,0,0,1,2.717-4.264,2.45,2.45,0,0,1,2.1-.9,0.954,0.954,0,0,0,1.233-.909c0.07-.412.07-0.412-0.86-1.009a4.209,4.209,0,0,1,.36-0.243c1.244-.665,2.484-1.337,3.742-1.975a1.3,1.3,0,0,1,.635.018,0.869,0.869,0,0,1,.2.106c0.8,0.339,2.612-.594,2.931-1.4a7.728,7.728,0,0,1,1.213-2.265,7.17,7.17,0,0,1,1.931-1.117,18.92,18.92,0,0,1-.4,9.307,19.068,19.068,0,0,1-9.224,11.561A19.326,19.326,0,0,1,6.876,32.675ZM2.491,26.913a8.17,8.17,0,0,0-.4.8,0.763,0.763,0,0,0,.662,1.148,3.861,3.861,0,0,0,1.455-.023A106.178,106.178,0,0,0,30.287,18.322c1.1-.645,2.171-1.353,3.232-2.068a0.751,0.751,0,0,1,.963-0.066,0.971,0.971,0,0,0,.154.07c1,0.467,1.117.72,0.765,1.793a0.669,0.669,0,0,1-.268.328c-7.443,4.611-15.024,8.959-23.324,11.892a23.021,23.021,0,0,1-7.654,1.544,4.267,4.267,0,0,1-2.96-1.2,1.611,1.611,0,0,1-.25-2.367,16.412,16.412,0,0,1,1.411-1.477Zm21.7-12.376a0.919,0.919,0,0,1,.324.366,0.852,0.852,0,0,1-.354.388,0.791,0.791,0,0,1-.218.034c-0.282.094-.632,0.278-0.729-0.163-0.094-.425.319-0.476,0.614-0.573A2.9,2.9,0,0,1,24.195,14.537ZM21,18.575a1.926,1.926,0,0,1-.4.35,1.534,1.534,0,0,1-.589.132,0.533,0.533,0,0,1-.409-0.157,0.521,0.521,0,0,1,.13-0.461,2.87,2.87,0,0,1,.9-0.172A1.018,1.018,0,0,1,21,18.575Z"/>
</svg>
