<svg xmlns="http://www.w3.org/2000/svg" width="53" height="52" viewBox="0 0 53 52">
  <metadata><?xpacket begin="﻿" id="W5M0MpCehiHzreSzNTczkc9d"?>
<x:xmpmeta xmlns:x="adobe:ns:meta/" x:xmptk="Adobe XMP Core 5.6-c138 79.159824, 2016/09/14-01:09:01        ">
   <rdf:RDF xmlns:rdf="http://www.w3.org/1999/02/22-rdf-syntax-ns#">
      <rdf:Description rdf:about=""/>
   </rdf:RDF>
</x:xmpmeta>
                                                                                                    
                                                                                                    
                                                                                                    
                                                                                                    
                                                                                                    
                                                                                                    
                                                                                                    
                                                                                                    
                                                                                                    
                                                                                                    
                                                                                                    
                                                                                                    
                                                                                                    
                                                                                                    
                                                                                                    
                                                                                                    
                                                                                                    
                                                                                                    
                                                                                                    
                                                                                                    
                           
<?xpacket end="w"?></metadata>
<defs>
    <style>
      .cls-1 {
        fill: #ff8a00;
        fill-rule: evenodd;
      }
    </style>
  </defs>
  <path class="cls-1" d="M40.453,51.2a1.966,1.966,0,0,1-.847-1.7c0-1.779-.013-3.559.005-5.338a1.889,1.889,0,0,1,2.05-2.035q4.426-.022,8.853,0a1.85,1.85,0,0,1,2.016,2.05c0.016,1.722-.016,3.444.012,5.166a1.981,1.981,0,0,1-1.4,2.118q-4.774,0-9.547,0A2.23,2.23,0,0,1,40.453,51.2Zm-28.959-3.2c0.049-1.287,0-2.578.015-3.867a1.844,1.844,0,0,1,1.974-2q4.5-.026,9.008,0A1.693,1.693,0,0,1,24.3,43.512a0.579,0.579,0,0,0-.187.54q0,2.747,0,5.494a0.562,0.562,0,0,0,.2.535,1.74,1.74,0,0,1-1.383,1.4q-4.779-.016-9.559-0.031C11.585,51.453,11.441,49.383,11.494,47.993ZM0.8,11.589A1.981,1.981,0,0,1,2.795,9.851c1.667-.251,2.631.469,3.185,2.182L7.365,9.891,8.657,11.9A7.81,7.81,0,0,1,9.2,11.113c0.366-.4.371-1.221,1.074-1.213,1.136,0.012,2.337-.328,3.315.7,1.269,1.338,1.31,1.3,2.631.011a2,2,0,0,1,2.412-.544,1.934,1.934,0,0,1,1.042,2,1.987,1.987,0,0,1-.615,1.2c-0.889.9-1.766,1.806-2.678,2.678a1.949,1.949,0,0,1-3.028-.059c-0.376-.373-0.712-0.788-1.066-1.184l-0.221.14q0,0.455,0,.91,0,9.65,0,19.3a2.15,2.15,0,0,1-2.911,2.235,1.95,1.95,0,0,1-1.318-1.662,0.594,0.594,0,0,0,.277-0.66q0-5.577,0-11.153c0-.278.061-0.6-0.372-0.633-0.7-.117-0.786.263-0.783,0.851q0.03,5.557,0,11.114a2.109,2.109,0,0,1-2.984,2.087A2.131,2.131,0,0,1,2.7,35.085c0.013-3.618-.009-7.237.017-10.855a1.03,1.03,0,0,0-.8-1.246,1.55,1.55,0,0,1-1.1-1.5,0.734,0.734,0,0,0,.236-0.774q0.006-4.176,0-8.352A0.714,0.714,0,0,0,.8,11.589ZM14.466,9.73a0.6,0.6,0,0,1-.326-0.64q0.027-3.733.046-7.467a14.681,14.681,0,0,1,1.549-.366Q32.792,1.3,49.849,1.28q0,0.173,0,.345a1.317,1.317,0,0,0,0,1.72V3.694C49.4,3.893,49.6,4.3,49.6,4.6c-0.013,5.544-.03,11.089.012,16.633,0.007,0.874-.217,1.1-1.093,1.1Q32,22.286,15.479,22.314c-0.43,0-.859.022-1.289,0.034q0-.449,0-0.9c0.371,0.022.467-.181,0.467-0.518s-0.1-.54-0.467-0.517V19.554c0.165-.012.43-0.013,0.412-0.188-0.111-1.089.563-.964,1.246-0.847,0.011,0.315.032,0.63,0.033,0.946,0,1.428,0,1.428,1.47,1.428q14.927,0,29.854.016c0.732,0,.983-0.15.978-0.939q-0.054-8.273,0-16.547c0-.7-0.166-0.927-0.9-0.925Q32,2.533,16.732,2.5c-0.666,0-.886.155-0.871,0.853,0.041,1.837-.005,3.675-0.016,5.513a0.637,0.637,0,0,0-.556.425A0.8,0.8,0,0,1,14.466,9.73ZM37.04,51.477l-10.016,0a1.939,1.939,0,0,1-1.483-2.055c-0.014-1.749-.03-3.5,0-5.247a1.893,1.893,0,0,1,2.119-2.051q4.379-.017,8.759,0a1.841,1.841,0,0,1,2.032,2.023c0.016,1.777-.006,3.556.007,5.333A1.88,1.88,0,0,1,37.04,51.477ZM24.961,31.26c1.52,0,3.04-.014,4.56.006a1.81,1.81,0,0,1,1.869,1.46c0.251,1.06.131,1.286-.889,1.67a4.3,4.3,0,0,0-2.559,5.488c0.222,0.661.067,0.775-.561,0.762-1.605-.032-3.212-0.024-4.817,0-0.545.007-.76-0.034-0.532-0.7A4.268,4.268,0,0,0,19.145,34.3a0.719,0.719,0,0,1-.615-0.831,1.918,1.918,0,0,1,2.129-2.2C22.093,31.252,23.527,31.26,24.961,31.26Zm14.105,0c1.405,0,2.811,0,4.216,0A1.976,1.976,0,0,1,45.5,33.633a0.594,0.594,0,0,1-.517.634,4.278,4.278,0,0,0-2.939,5.766c0.141,0.445.133,0.617-.391,0.611-1.721-.019-3.442-0.015-5.163,0-0.461,0-.591-0.086-0.435-0.592,0.855-2.759-.224-4.837-3-5.8a0.612,0.612,0,0,1-.5-0.662,1.993,1.993,0,0,1,2.2-2.33C36.2,31.253,37.632,31.26,39.066,31.259ZM7.311,9.561A3.382,3.382,0,0,1,3.952,6.016,3.415,3.415,0,0,1,7.385,2.667,3.447,3.447,0,1,1,7.311,9.561ZM49.43,38.488a3.289,3.289,0,0,1-3.4,3.328,3.337,3.337,0,0,1-3.3-3.361A3.394,3.394,0,0,1,46.146,35.1,3.35,3.35,0,0,1,49.43,38.488ZM17.882,41.824a3.316,3.316,0,0,1-3.258-3.385A3.35,3.35,0,0,1,17.959,35.1a3.4,3.4,0,0,1,3.368,3.415A3.359,3.359,0,0,1,17.882,41.824Zm7.094-10.877a3.274,3.274,0,0,1-3.315-3.341,3.342,3.342,0,0,1,3.4-3.372,3.408,3.408,0,0,1,3.3,3.412A3.338,3.338,0,0,1,24.976,30.947Zm13.993,0a3.351,3.351,0,0,1-3.278-3.384,3.407,3.407,0,0,1,3.363-3.331,3.339,3.339,0,0,1,3.335,3.413A3.29,3.29,0,0,1,38.969,30.949Zm-3.617,7.488a3.329,3.329,0,1,1-6.657.025A3.328,3.328,0,1,1,35.353,38.438ZM49.849,1.28q-17.057,0-34.113-.022a14.681,14.681,0,0,0-1.549.366c-0.152-.607.009-0.863,0.706-0.862q17.13,0.028,34.26.02C49.471,0.781,49.994.59,49.849,1.28ZM14.19,22.348c0.43-.012.859-0.034,1.289-0.034q16.518,0,33.036.019c0.876,0,1.1-.223,1.093-1.1C49.567,15.692,49.584,10.148,49.6,4.6c0-.307-0.2-0.71.251-0.909,0.016,0.372.045,0.743,0.046,1.115,0,5.626-.013,11.252.019,16.878a0.784,0.784,0,0,1-.975.962q-16.978-.031-33.956-0.022C14.706,22.627,14.323,22.806,14.19,22.348Zm-6.455.836c0.433,0.029.372,0.355,0.372,0.633q0,5.576,0,11.153a0.594,0.594,0,0,1-.277.66c-0.021-1.944-.045-3.889-0.06-5.833C7.754,27.593,7.746,25.389,7.735,23.184ZM0.8,11.589a0.714,0.714,0,0,1,.246.768q0.006,4.176,0,8.352a0.734,0.734,0,0,1-.236.774,25.065,25.065,0,0,1-.072-3.748C0.749,15.686.639,13.636,0.8,11.589Zm23.51,38.493a0.562,0.562,0,0,1-.2-0.535q0-2.747,0-5.494a0.579,0.579,0,0,1,.187-0.54,4.872,4.872,0,0,1,.122,2.035A28.124,28.124,0,0,1,24.314,50.082ZM15.845,18.519c-0.683-.116-1.357-0.242-1.246.847,0.018,0.174-.247.176-0.412,0.188-0.015-.225-0.04-0.451-0.042-0.677a0.994,0.994,0,0,1,1.476-1.066C16.033,17.947,15.836,18.263,15.845,18.519ZM14.466,9.73a0.8,0.8,0,0,0,.822-0.44,0.637,0.637,0,0,1,.556-0.425,1.28,1.28,0,0,1-.811,1.174C14.773,10.271,14.614,9.922,14.466,9.73ZM49.848,3.346a1.317,1.317,0,0,1,0-1.72A6.545,6.545,0,0,1,49.848,3.346ZM14.187,20.416c0.371-.022.467,0.181,0.467,0.517s-0.1.54-.467,0.518V20.416Zm9.805-1.464H21.914A0.511,0.511,0,0,1,21.4,18.44v-4.5a0.512,0.512,0,0,1,.511-0.512h2.078a0.512,0.512,0,0,1,.511.512v4.5A0.511,0.511,0,0,1,23.992,18.952Zm4.822,0H26.736a0.512,0.512,0,0,1-.511-0.512V12.218a0.511,0.511,0,0,1,.511-0.512h2.078a0.511,0.511,0,0,1,.511.512V18.44A0.512,0.512,0,0,1,28.814,18.952Zm4.823,0H31.559a0.511,0.511,0,0,1-.511-0.512V8.767a0.512,0.512,0,0,1,.511-0.512h2.078a0.512,0.512,0,0,1,.511.512V18.44A0.511,0.511,0,0,1,33.637,18.952Zm4.823,0H36.381a0.512,0.512,0,0,1-.511-0.512V10.32a0.512,0.512,0,0,1,.511-0.512h2.078a0.512,0.512,0,0,1,.511.512v8.12A0.512,0.512,0,0,1,38.459,18.952Zm4.822,0H41.2a0.511,0.511,0,0,1-.511-0.512V5.317A0.512,0.512,0,0,1,41.2,4.8h2.078a0.512,0.512,0,0,1,.511.512V18.44A0.512,0.512,0,0,1,43.282,18.952Z"/>
</svg>
